<?xml version="1.0" ?>
<svg xmlns="http://www.w3.org/2000/svg" xmlns:ev="http://www.w3.org/2001/xml-events" xmlns:xlink="http://www.w3.org/1999/xlink" baseProfile="full" height="50%" preserveAspectRatio="xMinYMin meet" version="1.1" viewBox="25.0 -2.0 7167.0 1926.0" width="50%">
	<defs/>
	<path d="M 1231.0,760.0 L 1518.0,760.0 Q 1677.0,760.0 1780.5,652.5 Q 1884.0,545.0 1884.0,380.0 Q 1884.0,215.0 1780.5,107.5 Q 1677.0,0.0 1518.0,0.0 L 1231.0,0.0 L 1231.0,8.0 L 1251.0,8.0 Q 1283.0,8.0 1300.5,12.5 Q 1318.0,17.0 1322.0,22.5 Q 1326.0,28.0 1326.0,36.0 L 1326.0,728.0 Q 1326.0,741.0 1312.0,746.5 Q 1298.0,752.0 1251.0,752.0 L 1231.0,752.0 L 1231.0,760.0 M 1338.0,750.0 L 1338.0,10.0 L 1516.0,10.0 Q 1670.0,10.0 1770.5,114.5 Q 1871.0,219.0 1871.0,380.0 Q 1871.0,541.0 1770.5,645.5 Q 1670.0,750.0 1516.0,750.0 L 1338.0,750.0" fill="none" stroke="#000000" stroke-width="7.167"/>
	<path d="M 1909.0,512.0 L 1909.0,520.0 L 1922.0,520.0 L 1986.0,522.0 L 1986.0,139.0 Q 1986.0,76.0 2025.0,42.5 Q 2064.0,9.0 2139.0,9.0 Q 2228.0,9.0 2300.0,95.0 Q 2372.0,181.0 2372.0,289.0 L 2372.0,488.0 Q 2372.0,512.0 2319.0,512.0 L 2306.0,512.0 L 2306.0,520.0 L 2319.0,520.0 L 2384.0,522.0 L 2384.0,124.0 L 2388.0,74.0 Q 2391.0,46.0 2400.5,27.0 Q 2410.0,8.0 2421.0,8.0 L 2469.0,16.0 L 2471.0,6.0 L 2422.0,-2.0 Q 2404.0,-2.0 2391.5,20.5 Q 2379.0,43.0 2376.0,74.0 L 2372.0,124.0 L 2372.0,174.0 Q 2372.0,190.0 2368.0,190.0 Q 2365.0,190.0 2360.0,178.0 Q 2329.0,100.0 2268.5,49.0 Q 2208.0,-2.0 2139.0,-2.0 Q 2059.0,-2.0 2016.5,34.0 Q 1974.0,70.0 1974.0,138.0 L 1974.0,488.0 Q 1974.0,501.0 1962.5,506.5 Q 1951.0,512.0 1922.0,512.0 L 1909.0,512.0" fill="none" stroke="#000000" stroke-width="7.167"/>
	<path d="M 2911.0,156.0 L 2911.0,436.0 Q 2813.0,512.0 2720.0,512.0 Q 2631.0,512.0 2573.5,440.5 Q 2516.0,369.0 2516.0,260.0 Q 2516.0,151.0 2575.0,79.5 Q 2634.0,8.0 2725.0,8.0 Q 2791.0,8.0 2840.5,48.5 Q 2890.0,89.0 2911.0,156.0 M 2923.0,762.0 L 2923.0,124.0 L 2928.0,74.0 Q 2931.0,46.0 2940.5,26.0 Q 2950.0,6.0 2961.0,6.0 L 3009.0,16.0 L 3011.0,6.0 L 2962.0,-2.0 L 2961.0,-2.0 Q 2943.0,-2.0 2930.5,20.5 Q 2918.0,43.0 2915.0,74.0 L 2913.0,96.0 Q 2911.0,110.0 2908.0,110.0 Q 2904.0,110.0 2898.0,99.0 Q 2839.0,-2.0 2725.0,-2.0 Q 2629.0,-2.0 2566.0,72.0 Q 2503.0,146.0 2503.0,260.0 Q 2503.0,374.0 2564.5,448.0 Q 2626.0,522.0 2720.0,522.0 Q 2812.0,522.0 2911.0,448.0 L 2911.0,728.0 Q 2911.0,741.0 2899.5,746.5 Q 2888.0,752.0 2859.0,752.0 L 2836.0,752.0 L 2836.0,760.0 L 2859.0,760.0 L 2923.0,762.0" fill="none" stroke="#000000" stroke-width="7.167"/>
	<path d="M 3485.0,275.0 Q 3508.0,275.0 3508.0,309.0 Q 3508.0,320.0 3507.0,324.0 Q 3492.0,410.0 3434.5,461.0 Q 3377.0,512.0 3289.0,512.0 Q 3193.0,512.0 3127.0,446.5 Q 3061.0,381.0 3057.0,275.0 L 3485.0,275.0 M 3056.0,265.0 L 3056.0,260.0 Q 3056.0,150.0 3119.5,79.0 Q 3183.0,8.0 3283.0,8.0 Q 3437.0,8.0 3503.0,123.0 L 3512.0,118.0 Q 3445.0,-2.0 3283.0,-2.0 Q 3178.0,-2.0 3110.5,72.5 Q 3043.0,147.0 3043.0,260.0 L 3043.0,270.0 Q 3046.0,381.0 3115.5,451.5 Q 3185.0,522.0 3289.0,522.0 Q 3395.0,522.0 3459.0,451.0 Q 3523.0,380.0 3523.0,270.0 Q 3523.0,265.0 3519.0,265.0 L 3056.0,265.0" fill="none" stroke="#000000" stroke-width="7.167"/>
	<path d="M 4363.0,156.0 L 4363.0,436.0 Q 4265.0,512.0 4172.0,512.0 Q 4083.0,512.0 4025.5,440.5 Q 3968.0,369.0 3968.0,260.0 Q 3968.0,151.0 4027.0,79.5 Q 4086.0,8.0 4177.0,8.0 Q 4243.0,8.0 4292.5,48.5 Q 4342.0,89.0 4363.0,156.0 M 4375.0,762.0 L 4375.0,124.0 L 4380.0,74.0 Q 4383.0,46.0 4392.5,26.0 Q 4402.0,6.0 4413.0,6.0 L 4461.0,16.0 L 4463.0,6.0 L 4414.0,-2.0 L 4413.0,-2.0 Q 4395.0,-2.0 4382.5,20.5 Q 4370.0,43.0 4367.0,74.0 L 4365.0,96.0 Q 4363.0,110.0 4360.0,110.0 Q 4356.0,110.0 4350.0,99.0 Q 4291.0,-2.0 4177.0,-2.0 Q 4081.0,-2.0 4018.0,72.0 Q 3955.0,146.0 3955.0,260.0 Q 3955.0,374.0 4016.5,448.0 Q 4078.0,522.0 4172.0,522.0 Q 4264.0,522.0 4363.0,448.0 L 4363.0,728.0 Q 4363.0,741.0 4351.5,746.5 Q 4340.0,752.0 4311.0,752.0 L 4288.0,752.0 L 4288.0,760.0 L 4311.0,760.0 L 4375.0,762.0" fill="none" stroke="#000000" stroke-width="7.167"/>
	<path d="M 4901.0,323.0 Q 4891.0,307.0 4873.0,295.5 Q 4855.0,284.0 4826.5,278.0 Q 4798.0,272.0 4780.5,269.0 Q 4763.0,266.0 4729.0,263.0 Q 4695.0,260.0 4691.0,260.0 Q 4508.0,242.0 4508.0,130.0 Q 4508.0,77.0 4559.5,42.5 Q 4611.0,8.0 4691.0,8.0 Q 4777.0,8.0 4839.0,74.0 Q 4901.0,140.0 4901.0,222.0 L 4901.0,323.0 M 4749.0,522.0 Q 4821.0,522.0 4867.0,476.5 Q 4913.0,431.0 4913.0,360.0 L 4913.0,118.0 L 4921.0,70.0 Q 4931.0,10.0 4951.0,10.0 L 5005.0,15.0 L 5006.0,5.0 L 4951.0,-2.0 Q 4919.0,-2.0 4909.0,68.0 Q 4908.0,75.0 4906.0,86.5 Q 4904.0,98.0 4902.5,106.5 Q 4901.0,115.0 4901.0,117.0 L 4901.0,128.0 Q 4901.0,142.0 4897.0,142.0 Q 4894.0,142.0 4889.0,131.0 Q 4862.0,73.0 4809.0,35.5 Q 4756.0,-2.0 4691.0,-2.0 Q 4606.0,-2.0 4550.5,35.0 Q 4495.0,72.0 4495.0,130.0 Q 4495.0,251.0 4690.0,270.0 Q 4694.0,270.0 4712.5,272.0 Q 4731.0,274.0 4739.5,275.0 Q 4748.0,276.0 4767.0,278.0 Q 4786.0,280.0 4796.5,282.5 Q 4807.0,285.0 4823.5,289.0 Q 4840.0,293.0 4850.0,298.0 Q 4860.0,303.0 4871.0,309.5 Q 4882.0,316.0 4888.5,324.0 Q 4895.0,332.0 4898.0,342.0 Q 4901.0,351.0 4901.0,358.0 L 4901.0,360.0 Q 4901.0,426.0 4858.5,469.0 Q 4816.0,512.0 4750.0,512.0 Q 4675.0,512.0 4622.0,483.0 Q 4569.0,454.0 4569.0,413.0 Q 4569.0,402.0 4559.0,402.0 Q 4548.0,402.0 4548.0,413.0 Q 4548.0,458.0 4607.0,490.0 Q 4666.0,522.0 4749.0,522.0" fill="none" stroke="#000000" stroke-width="7.167"/>
	<path d="M 5021.0,760.0 L 5038.0,760.0 L 5104.0,762.0 L 5104.0,448.0 Q 5204.0,522.0 5294.0,522.0 Q 5388.0,522.0 5449.5,448.0 Q 5511.0,374.0 5511.0,260.0 Q 5511.0,146.0 5448.5,72.0 Q 5386.0,-2.0 5290.0,-2.0 Q 5235.0,-2.0 5190.0,24.0 Q 5145.0,50.0 5118.0,96.0 Q 5112.0,106.0 5108.0,106.0 Q 5103.0,106.0 5103.0,93.0 L 5101.0,0.0 L 5091.0,0.0 L 5091.0,728.0 Q 5091.0,752.0 5038.0,752.0 L 5021.0,752.0 L 5021.0,760.0 M 5104.0,436.0 L 5104.0,154.0 Q 5125.0,87.0 5174.0,47.5 Q 5223.0,8.0 5290.0,8.0 Q 5381.0,8.0 5439.5,79.0 Q 5498.0,150.0 5498.0,260.0 Q 5498.0,369.0 5440.5,440.5 Q 5383.0,512.0 5294.0,512.0 Q 5204.0,512.0 5104.0,436.0" fill="none" stroke="#000000" stroke-width="7.167"/>
	<path d="M 5753.0,522.0 Q 5848.0,522.0 5911.0,472.0 L 5930.0,457.0 Q 5937.0,457.0 5937.0,480.0 Q 5937.0,492.0 5936.0,520.0 L 5944.0,520.0 L 5949.0,370.0 Q 5949.0,366.0 5945.0,366.0 Q 5941.0,366.0 5941.0,370.0 L 5941.0,374.0 Q 5932.0,443.0 5905.0,464.0 Q 5846.0,512.0 5753.0,512.0 Q 5681.0,512.0 5635.0,480.5 Q 5589.0,449.0 5589.0,400.0 Q 5589.0,374.0 5615.5,353.5 Q 5642.0,333.0 5669.0,323.5 Q 5696.0,314.0 5753.0,298.0 Q 5769.0,293.0 5777.0,291.0 Q 5814.0,280.0 5838.5,271.5 Q 5863.0,263.0 5894.0,248.0 Q 5925.0,233.0 5943.0,217.0 Q 5961.0,201.0 5973.5,176.0 Q 5986.0,151.0 5986.0,122.0 Q 5986.0,68.0 5924.5,33.0 Q 5863.0,-2.0 5769.0,-2.0 Q 5713.0,-2.0 5673.5,10.5 Q 5634.0,23.0 5595.0,56.0 Q 5570.0,79.0 5563.0,79.0 Q 5554.0,79.0 5553.0,47.0 L 5551.0,0.0 L 5543.0,0.0 L 5549.0,165.0 L 5557.0,165.0 L 5557.0,160.0 Q 5557.0,102.0 5603.0,63.0 Q 5641.0,32.0 5678.5,20.0 Q 5716.0,8.0 5769.0,8.0 Q 5858.0,8.0 5915.5,40.0 Q 5973.0,72.0 5973.0,122.0 Q 5973.0,149.0 5961.0,171.5 Q 5949.0,194.0 5932.0,208.5 Q 5915.0,223.0 5884.5,237.0 Q 5854.0,251.0 5831.5,259.0 Q 5809.0,267.0 5771.0,278.0 Q 5766.0,279.0 5757.0,282.0 Q 5711.0,295.0 5687.5,303.0 Q 5664.0,311.0 5633.5,325.5 Q 5603.0,340.0 5589.5,358.0 Q 5576.0,376.0 5576.0,400.0 Q 5576.0,453.0 5626.0,487.5 Q 5676.0,522.0 5753.0,522.0" fill="none" stroke="#000000" stroke-width="7.167"/>
	<path d="M 25.0,1922.0 L 245.0,1922.0 L 245.0,1914.0 L 208.0,1914.0 Q 176.0,1914.0 158.5,1910.0 Q 141.0,1906.0 136.5,1901.0 Q 132.0,1896.0 132.0,1888.0 L 132.0,1572.0 L 598.0,1572.0 L 598.0,1888.0 Q 598.0,1896.0 593.5,1901.0 Q 589.0,1906.0 571.5,1910.0 Q 554.0,1914.0 522.0,1914.0 L 485.0,1914.0 L 485.0,1922.0 L 705.0,1922.0 L 705.0,1914.0 L 685.0,1914.0 Q 653.0,1914.0 635.5,1910.0 Q 618.0,1906.0 614.0,1901.0 Q 610.0,1896.0 610.0,1888.0 L 610.0,1198.0 Q 610.0,1190.0 614.0,1184.5 Q 618.0,1179.0 635.5,1174.5 Q 653.0,1170.0 685.0,1170.0 L 705.0,1170.0 L 705.0,1162.0 L 485.0,1162.0 L 485.0,1170.0 L 522.0,1170.0 Q 598.0,1170.0 598.0,1198.0 L 598.0,1562.0 L 132.0,1562.0 L 132.0,1198.0 Q 132.0,1170.0 208.0,1170.0 L 245.0,1170.0 L 245.0,1162.0 L 25.0,1162.0 L 25.0,1170.0 L 45.0,1170.0 Q 77.0,1170.0 94.5,1174.5 Q 112.0,1179.0 116.0,1184.5 Q 120.0,1190.0 120.0,1198.0 L 120.0,1888.0 Q 120.0,1896.0 116.0,1901.0 Q 112.0,1906.0 94.5,1910.0 Q 77.0,1914.0 45.0,1914.0 L 25.0,1914.0 L 25.0,1922.0" fill="none" stroke="#000000" stroke-width="7.167"/>
	<path d="M 1143.0,1485.0 Q 1133.0,1469.0 1115.0,1457.5 Q 1097.0,1446.0 1068.5,1440.0 Q 1040.0,1434.0 1022.5,1431.0 Q 1005.0,1428.0 971.0,1425.0 Q 937.0,1422.0 933.0,1422.0 Q 750.0,1404.0 750.0,1292.0 Q 750.0,1239.0 801.5,1204.5 Q 853.0,1170.0 933.0,1170.0 Q 1019.0,1170.0 1081.0,1236.0 Q 1143.0,1302.0 1143.0,1384.0 L 1143.0,1485.0 M 991.0,1684.0 Q 1063.0,1684.0 1109.0,1638.5 Q 1155.0,1593.0 1155.0,1522.0 L 1155.0,1280.0 L 1163.0,1232.0 Q 1173.0,1172.0 1193.0,1172.0 L 1247.0,1177.0 L 1248.0,1167.0 L 1193.0,1160.0 Q 1161.0,1160.0 1151.0,1230.0 Q 1150.0,1237.0 1148.0,1248.5 Q 1146.0,1260.0 1144.5,1268.5 Q 1143.0,1277.0 1143.0,1279.0 L 1143.0,1290.0 Q 1143.0,1304.0 1139.0,1304.0 Q 1136.0,1304.0 1131.0,1293.0 Q 1104.0,1235.0 1051.0,1197.5 Q 998.0,1160.0 933.0,1160.0 Q 848.0,1160.0 792.5,1197.0 Q 737.0,1234.0 737.0,1292.0 Q 737.0,1413.0 932.0,1432.0 Q 936.0,1432.0 954.5,1434.0 Q 973.0,1436.0 981.5,1437.0 Q 990.0,1438.0 1009.0,1440.0 Q 1028.0,1442.0 1038.5,1444.5 Q 1049.0,1447.0 1065.5,1451.0 Q 1082.0,1455.0 1092.0,1460.0 Q 1102.0,1465.0 1113.0,1471.5 Q 1124.0,1478.0 1130.5,1486.0 Q 1137.0,1494.0 1140.0,1504.0 Q 1143.0,1513.0 1143.0,1520.0 L 1143.0,1522.0 Q 1143.0,1588.0 1100.5,1631.0 Q 1058.0,1674.0 992.0,1674.0 Q 917.0,1674.0 864.0,1645.0 Q 811.0,1616.0 811.0,1575.0 Q 811.0,1564.0 801.0,1564.0 Q 790.0,1564.0 790.0,1575.0 Q 790.0,1620.0 849.0,1652.0 Q 908.0,1684.0 991.0,1684.0" fill="none" stroke="#000000" stroke-width="7.167"/>
	<path d="M 1368.0,1598.0 L 1368.0,1316.0 Q 1389.0,1249.0 1438.0,1209.5 Q 1487.0,1170.0 1554.0,1170.0 Q 1645.0,1170.0 1704.0,1241.5 Q 1763.0,1313.0 1763.0,1422.0 Q 1763.0,1531.0 1705.5,1602.5 Q 1648.0,1674.0 1559.0,1674.0 Q 1468.0,1674.0 1368.0,1598.0 M 1368.0,957.0 Q 1368.0,949.0 1372.0,943.5 Q 1376.0,938.0 1393.5,934.0 Q 1411.0,930.0 1443.0,930.0 L 1480.0,930.0 L 1480.0,922.0 L 1260.0,922.0 L 1260.0,930.0 L 1280.0,930.0 Q 1312.0,930.0 1329.5,934.0 Q 1347.0,938.0 1351.5,943.5 Q 1356.0,949.0 1356.0,957.0 L 1356.0,1650.0 Q 1356.0,1674.0 1303.0,1674.0 L 1290.0,1674.0 L 1290.0,1682.0 L 1303.0,1682.0 L 1368.0,1684.0 L 1368.0,1610.0 Q 1468.0,1684.0 1559.0,1684.0 Q 1653.0,1684.0 1714.5,1610.0 Q 1776.0,1536.0 1776.0,1422.0 Q 1776.0,1308.0 1713.0,1234.0 Q 1650.0,1160.0 1554.0,1160.0 Q 1501.0,1160.0 1457.5,1185.0 Q 1414.0,1210.0 1386.0,1254.0 Q 1377.0,1268.0 1373.0,1268.0 Q 1368.0,1268.0 1368.0,1249.0 L 1368.0,957.0" fill="none" stroke="#000000" stroke-width="7.167"/>
	<path d="M 1896.0,1598.0 L 1896.0,1316.0 Q 1917.0,1249.0 1966.0,1209.5 Q 2015.0,1170.0 2082.0,1170.0 Q 2173.0,1170.0 2232.0,1241.5 Q 2291.0,1313.0 2291.0,1422.0 Q 2291.0,1531.0 2233.5,1602.5 Q 2176.0,1674.0 2087.0,1674.0 Q 1996.0,1674.0 1896.0,1598.0 M 1896.0,957.0 Q 1896.0,949.0 1900.0,943.5 Q 1904.0,938.0 1921.5,934.0 Q 1939.0,930.0 1971.0,930.0 L 2008.0,930.0 L 2008.0,922.0 L 1788.0,922.0 L 1788.0,930.0 L 1808.0,930.0 Q 1840.0,930.0 1857.5,934.0 Q 1875.0,938.0 1879.5,943.5 Q 1884.0,949.0 1884.0,957.0 L 1884.0,1650.0 Q 1884.0,1674.0 1831.0,1674.0 L 1818.0,1674.0 L 1818.0,1682.0 L 1831.0,1682.0 L 1896.0,1684.0 L 1896.0,1610.0 Q 1996.0,1684.0 2087.0,1684.0 Q 2181.0,1684.0 2242.5,1610.0 Q 2304.0,1536.0 2304.0,1422.0 Q 2304.0,1308.0 2241.0,1234.0 Q 2178.0,1160.0 2082.0,1160.0 Q 2029.0,1160.0 1985.5,1185.0 Q 1942.0,1210.0 1914.0,1254.0 Q 1905.0,1268.0 1901.0,1268.0 Q 1896.0,1268.0 1896.0,1249.0 L 1896.0,957.0" fill="none" stroke="#000000" stroke-width="7.167"/>
	<path d="M 2675.0,1682.0 L 2874.0,1682.0 L 2874.0,1674.0 L 2868.0,1674.0 Q 2818.0,1674.0 2804.0,1638.0 L 2595.0,1140.0 Q 2549.0,1032.0 2499.5,977.0 Q 2450.0,922.0 2382.0,922.0 Q 2321.0,922.0 2282.5,949.0 Q 2244.0,976.0 2244.0,1020.0 Q 2244.0,1034.0 2250.0,1046.0 Q 2253.0,1053.0 2260.0,1053.0 Q 2264.0,1053.0 2266.0,1052.0 Q 2274.0,1049.0 2274.0,1041.0 Q 2274.0,1040.0 2273.0,1038.5 Q 2272.0,1037.0 2272.0,1036.0 Q 2267.0,1026.0 2267.0,1012.0 Q 2267.0,976.0 2298.5,954.0 Q 2330.0,932.0 2382.0,932.0 Q 2446.0,932.0 2494.0,985.5 Q 2542.0,1039.0 2586.0,1143.0 L 2588.0,1150.0 L 2588.0,1151.0 Q 2589.0,1152.0 2589.0,1153.0 Q 2589.0,1162.0 2582.0,1181.0 L 2406.0,1607.0 Q 2390.0,1646.0 2379.0,1656.0 Q 2368.0,1666.0 2344.0,1666.0 Q 2332.0,1666.0 2320.0,1662.0 L 2318.0,1662.0 L 2316.0,1661.0 Q 2307.0,1661.0 2307.0,1670.0 Q 2307.0,1684.0 2341.0,1684.0 Q 2372.0,1684.0 2385.5,1669.5 Q 2399.0,1655.0 2418.0,1610.0 L 2589.0,1196.0 Q 2595.0,1182.0 2598.0,1182.0 Q 2602.0,1182.0 2608.0,1197.0 L 2796.0,1640.0 Q 2800.0,1652.0 2800.0,1656.0 Q 2800.0,1667.0 2784.0,1670.5 Q 2768.0,1674.0 2725.0,1674.0 L 2675.0,1674.0 L 2675.0,1682.0" fill="none" stroke="#000000" stroke-width="7.167"/>
	<path d="M 3299.0,1922.0 L 3574.0,1922.0 Q 3700.0,1922.0 3767.0,1875.5 Q 3834.0,1829.0 3834.0,1754.0 Q 3834.0,1690.0 3796.5,1645.0 Q 3759.0,1600.0 3687.0,1590.0 L 3685.0,1590.0 L 3685.0,1588.0 L 3687.0,1588.0 Q 3914.0,1563.0 3914.0,1382.0 Q 3914.0,1286.0 3840.0,1224.0 Q 3766.0,1162.0 3654.0,1162.0 L 3299.0,1162.0 L 3299.0,1170.0 L 3319.0,1170.0 Q 3351.0,1170.0 3368.5,1174.0 Q 3386.0,1178.0 3390.0,1183.5 Q 3394.0,1189.0 3394.0,1197.0 L 3394.0,1886.0 Q 3394.0,1900.0 3379.0,1907.0 Q 3364.0,1914.0 3319.0,1914.0 L 3299.0,1914.0 L 3299.0,1922.0 M 3406.0,1912.0 L 3406.0,1172.0 L 3654.0,1172.0 Q 3763.0,1172.0 3832.5,1231.0 Q 3902.0,1290.0 3902.0,1382.0 Q 3902.0,1415.0 3894.0,1442.5 Q 3886.0,1470.0 3865.0,1499.5 Q 3844.0,1529.0 3798.5,1549.5 Q 3753.0,1570.0 3686.0,1578.0 L 3634.0,1584.0 L 3435.0,1584.0 L 3435.0,1594.0 L 3634.0,1594.0 L 3686.0,1600.0 Q 3754.0,1610.0 3788.0,1651.5 Q 3822.0,1693.0 3822.0,1754.0 Q 3822.0,1824.0 3760.0,1868.0 Q 3698.0,1912.0 3574.0,1912.0 L 3406.0,1912.0" fill="none" stroke="#000000" stroke-width="7.167"/>
	<path d="M 4019.0,1852.0 Q 4019.0,1860.0 4025.0,1866.0 Q 4031.0,1872.0 4039.0,1872.0 Q 4047.0,1872.0 4053.0,1866.0 Q 4059.0,1860.0 4059.0,1852.0 Q 4059.0,1844.0 4053.0,1838.0 Q 4047.0,1832.0 4039.0,1832.0 Q 4031.0,1832.0 4025.0,1838.0 Q 4019.0,1844.0 4019.0,1852.0 M 4046.0,1197.0 Q 4046.0,1189.0 4050.5,1183.5 Q 4055.0,1178.0 4072.5,1174.0 Q 4090.0,1170.0 4122.0,1170.0 L 4139.0,1170.0 L 4139.0,1162.0 L 3939.0,1162.0 L 3939.0,1170.0 L 3959.0,1170.0 Q 3991.0,1170.0 4008.5,1174.0 Q 4026.0,1178.0 4030.0,1183.5 Q 4034.0,1189.0 4034.0,1197.0 L 4034.0,1650.0 Q 4034.0,1663.0 4022.5,1668.5 Q 4011.0,1674.0 3982.0,1674.0 L 3969.0,1674.0 L 3969.0,1682.0 L 3982.0,1682.0 L 4046.0,1684.0 L 4046.0,1197.0" fill="none" stroke="#000000" stroke-width="7.167"/>
	<path d="M 4530.0,1610.0 Q 4530.0,1598.0 4517.0,1598.0 Q 4505.0,1598.0 4505.0,1610.0 Q 4505.0,1674.0 4447.0,1674.0 Q 4373.0,1674.0 4322.0,1604.5 Q 4271.0,1535.0 4271.0,1440.0 L 4271.0,1197.0 Q 4271.0,1189.0 4275.5,1183.5 Q 4280.0,1178.0 4297.5,1174.0 Q 4315.0,1170.0 4347.0,1170.0 L 4374.0,1170.0 L 4374.0,1162.0 L 4164.0,1162.0 L 4164.0,1170.0 L 4184.0,1170.0 Q 4216.0,1170.0 4233.5,1174.0 Q 4251.0,1178.0 4255.0,1183.5 Q 4259.0,1189.0 4259.0,1197.0 L 4259.0,1650.0 Q 4259.0,1663.0 4247.5,1668.5 Q 4236.0,1674.0 4207.0,1674.0 L 4194.0,1674.0 L 4194.0,1682.0 L 4207.0,1682.0 L 4271.0,1684.0 L 4271.0,1518.0 Q 4290.0,1590.0 4337.0,1637.0 Q 4384.0,1684.0 4447.0,1684.0 Q 4482.0,1684.0 4506.0,1663.0 Q 4530.0,1642.0 4530.0,1610.0" fill="none" stroke="#000000" stroke-width="7.167"/>
	<path d="M 4550.0,1662.0 L 4550.0,1672.0 L 4595.0,1672.0 Q 4628.0,1672.0 4636.5,1683.0 Q 4645.0,1694.0 4645.0,1734.0 L 4645.0,1822.0 L 4655.0,1822.0 L 4655.0,1689.0 Q 4655.0,1672.0 4673.0,1672.0 L 4910.0,1672.0 L 4910.0,1662.0 L 4673.0,1662.0 Q 4655.0,1662.0 4655.0,1644.0 L 4655.0,1357.0 Q 4655.0,1275.0 4692.0,1222.5 Q 4729.0,1170.0 4786.0,1170.0 Q 4869.0,1170.0 4906.0,1230.0 L 4914.0,1226.0 Q 4894.0,1193.0 4859.5,1176.5 Q 4825.0,1160.0 4786.0,1160.0 Q 4724.0,1160.0 4683.0,1216.0 Q 4642.0,1272.0 4642.0,1357.0 L 4642.0,1644.0 Q 4642.0,1662.0 4624.0,1662.0 L 4550.0,1662.0" fill="none" stroke="#000000" stroke-width="7.167"/>
	<path d="M 4959.0,1922.0 L 4982.0,1922.0 L 5046.0,1924.0 L 5046.0,1508.0 Q 5046.0,1492.0 5050.0,1492.0 Q 5053.0,1492.0 5058.0,1504.0 Q 5089.0,1582.0 5149.5,1633.0 Q 5210.0,1684.0 5279.0,1684.0 Q 5359.0,1684.0 5401.5,1648.0 Q 5444.0,1612.0 5444.0,1544.0 L 5444.0,1197.0 Q 5444.0,1189.0 5448.0,1183.5 Q 5452.0,1178.0 5469.5,1174.0 Q 5487.0,1170.0 5519.0,1170.0 L 5539.0,1170.0 L 5539.0,1162.0 L 5329.0,1162.0 L 5329.0,1170.0 L 5356.0,1170.0 Q 5388.0,1170.0 5405.5,1174.0 Q 5423.0,1178.0 5427.5,1183.5 Q 5432.0,1189.0 5432.0,1197.0 L 5432.0,1543.0 Q 5432.0,1606.0 5392.5,1639.5 Q 5353.0,1673.0 5279.0,1673.0 Q 5192.0,1673.0 5119.0,1585.5 Q 5046.0,1498.0 5046.0,1393.0 L 5046.0,1197.0 Q 5046.0,1189.0 5050.5,1183.5 Q 5055.0,1178.0 5072.5,1174.0 Q 5090.0,1170.0 5122.0,1170.0 L 5149.0,1170.0 L 5149.0,1162.0 L 4939.0,1162.0 L 4939.0,1170.0 L 4959.0,1170.0 Q 4991.0,1170.0 5008.5,1174.0 Q 5026.0,1178.0 5030.0,1183.5 Q 5034.0,1189.0 5034.0,1197.0 L 5034.0,1890.0 Q 5034.0,1903.0 5022.5,1908.5 Q 5011.0,1914.0 4982.0,1914.0 L 4959.0,1914.0 L 4959.0,1922.0" fill="none" stroke="#000000" stroke-width="7.167"/>
	<path d="M 5979.0,1318.0 L 5979.0,1598.0 Q 5881.0,1674.0 5788.0,1674.0 Q 5699.0,1674.0 5641.5,1602.5 Q 5584.0,1531.0 5584.0,1422.0 Q 5584.0,1313.0 5643.0,1241.5 Q 5702.0,1170.0 5793.0,1170.0 Q 5859.0,1170.0 5908.5,1210.5 Q 5958.0,1251.0 5979.0,1318.0 M 5991.0,1924.0 L 5991.0,1286.0 L 5996.0,1236.0 Q 5999.0,1208.0 6008.5,1188.0 Q 6018.0,1168.0 6029.0,1168.0 L 6077.0,1178.0 L 6079.0,1168.0 L 6030.0,1160.0 L 6029.0,1160.0 Q 6011.0,1160.0 5998.5,1182.5 Q 5986.0,1205.0 5983.0,1236.0 L 5981.0,1258.0 Q 5979.0,1272.0 5976.0,1272.0 Q 5972.0,1272.0 5966.0,1261.0 Q 5907.0,1160.0 5793.0,1160.0 Q 5697.0,1160.0 5634.0,1234.0 Q 5571.0,1308.0 5571.0,1422.0 Q 5571.0,1536.0 5632.5,1610.0 Q 5694.0,1684.0 5788.0,1684.0 Q 5880.0,1684.0 5979.0,1610.0 L 5979.0,1890.0 Q 5979.0,1903.0 5967.5,1908.5 Q 5956.0,1914.0 5927.0,1914.0 L 5904.0,1914.0 L 5904.0,1922.0 L 5927.0,1922.0 L 5991.0,1924.0" fill="none" stroke="#000000" stroke-width="7.167"/>
	<path d="M 6517.0,1485.0 Q 6507.0,1469.0 6489.0,1457.5 Q 6471.0,1446.0 6442.5,1440.0 Q 6414.0,1434.0 6396.5,1431.0 Q 6379.0,1428.0 6345.0,1425.0 Q 6311.0,1422.0 6307.0,1422.0 Q 6124.0,1404.0 6124.0,1292.0 Q 6124.0,1239.0 6175.5,1204.5 Q 6227.0,1170.0 6307.0,1170.0 Q 6393.0,1170.0 6455.0,1236.0 Q 6517.0,1302.0 6517.0,1384.0 L 6517.0,1485.0 M 6365.0,1684.0 Q 6437.0,1684.0 6483.0,1638.5 Q 6529.0,1593.0 6529.0,1522.0 L 6529.0,1280.0 L 6537.0,1232.0 Q 6547.0,1172.0 6567.0,1172.0 L 6621.0,1177.0 L 6622.0,1167.0 L 6567.0,1160.0 Q 6535.0,1160.0 6525.0,1230.0 Q 6524.0,1237.0 6522.0,1248.5 Q 6520.0,1260.0 6518.5,1268.5 Q 6517.0,1277.0 6517.0,1279.0 L 6517.0,1290.0 Q 6517.0,1304.0 6513.0,1304.0 Q 6510.0,1304.0 6505.0,1293.0 Q 6478.0,1235.0 6425.0,1197.5 Q 6372.0,1160.0 6307.0,1160.0 Q 6222.0,1160.0 6166.5,1197.0 Q 6111.0,1234.0 6111.0,1292.0 Q 6111.0,1413.0 6306.0,1432.0 Q 6310.0,1432.0 6328.5,1434.0 Q 6347.0,1436.0 6355.5,1437.0 Q 6364.0,1438.0 6383.0,1440.0 Q 6402.0,1442.0 6412.5,1444.5 Q 6423.0,1447.0 6439.5,1451.0 Q 6456.0,1455.0 6466.0,1460.0 Q 6476.0,1465.0 6487.0,1471.5 Q 6498.0,1478.0 6504.5,1486.0 Q 6511.0,1494.0 6514.0,1504.0 Q 6517.0,1513.0 6517.0,1520.0 L 6517.0,1522.0 Q 6517.0,1588.0 6474.5,1631.0 Q 6432.0,1674.0 6366.0,1674.0 Q 6291.0,1674.0 6238.0,1645.0 Q 6185.0,1616.0 6185.0,1575.0 Q 6185.0,1564.0 6175.0,1564.0 Q 6164.0,1564.0 6164.0,1575.0 Q 6164.0,1620.0 6223.0,1652.0 Q 6282.0,1684.0 6365.0,1684.0" fill="none" stroke="#000000" stroke-width="7.167"/>
	<path d="M 6993.0,1682.0 L 7192.0,1682.0 L 7192.0,1674.0 L 7186.0,1674.0 Q 7136.0,1674.0 7122.0,1638.0 L 6913.0,1140.0 Q 6867.0,1032.0 6817.5,977.0 Q 6768.0,922.0 6700.0,922.0 Q 6639.0,922.0 6600.5,949.0 Q 6562.0,976.0 6562.0,1020.0 Q 6562.0,1034.0 6568.0,1046.0 Q 6571.0,1053.0 6578.0,1053.0 Q 6582.0,1053.0 6584.0,1052.0 Q 6592.0,1049.0 6592.0,1041.0 Q 6592.0,1040.0 6591.0,1038.5 Q 6590.0,1037.0 6590.0,1036.0 Q 6585.0,1026.0 6585.0,1012.0 Q 6585.0,976.0 6616.5,954.0 Q 6648.0,932.0 6700.0,932.0 Q 6764.0,932.0 6812.0,985.5 Q 6860.0,1039.0 6904.0,1143.0 L 6906.0,1150.0 L 6906.0,1151.0 Q 6907.0,1152.0 6907.0,1153.0 Q 6907.0,1162.0 6900.0,1181.0 L 6724.0,1607.0 Q 6708.0,1646.0 6697.0,1656.0 Q 6686.0,1666.0 6662.0,1666.0 Q 6650.0,1666.0 6638.0,1662.0 L 6636.0,1662.0 L 6634.0,1661.0 Q 6625.0,1661.0 6625.0,1670.0 Q 6625.0,1684.0 6659.0,1684.0 Q 6690.0,1684.0 6703.5,1669.5 Q 6717.0,1655.0 6736.0,1610.0 L 6907.0,1196.0 Q 6913.0,1182.0 6916.0,1182.0 Q 6920.0,1182.0 6926.0,1197.0 L 7114.0,1640.0 Q 7118.0,1652.0 7118.0,1656.0 Q 7118.0,1667.0 7102.0,1670.5 Q 7086.0,1674.0 7043.0,1674.0 L 6993.0,1674.0 L 6993.0,1682.0" fill="none" stroke="#000000" stroke-width="7.167"/>
</svg>
