<?xml version="1.0" ?>
<svg xmlns="http://www.w3.org/2000/svg" xmlns:ev="http://www.w3.org/2001/xml-events" xmlns:xlink="http://www.w3.org/1999/xlink" baseProfile="full" height="50%" preserveAspectRatio="xMinYMin meet" version="1.1" viewBox="25.0 -2.0 7167.0 1926.0" width="50%">
	<defs/>
	<path d="M 2462.5,760.0 L 2749.5,760.0 Q 2908.5,760.0 3012.0,652.5 Q 3115.5,545.0 3115.5,380.0 Q 3115.5,215.0 3012.0,107.5 Q 2908.5,0.0 2749.5,0.0 L 2462.5,0.0 L 2462.5,8.0 L 2482.5,8.0 Q 2514.5,8.0 2532.0,12.5 Q 2549.5,17.0 2553.5,22.5 Q 2557.5,28.0 2557.5,36.0 L 2557.5,728.0 Q 2557.5,741.0 2543.5,746.5 Q 2529.5,752.0 2482.5,752.0 L 2462.5,752.0 L 2462.5,760.0 M 2569.5,750.0 L 2569.5,10.0 L 2747.5,10.0 Q 2901.5,10.0 3002.0,114.5 Q 3102.5,219.0 3102.5,380.0 Q 3102.5,541.0 3002.0,645.5 Q 2901.5,750.0 2747.5,750.0 L 2569.5,750.0" fill="none" stroke="#000000" stroke-width="7.167"/>
	<path d="M 3140.5,512.0 L 3140.5,520.0 L 3153.5,520.0 L 3217.5,522.0 L 3217.5,139.0 Q 3217.5,76.0 3256.5,42.5 Q 3295.5,9.0 3370.5,9.0 Q 3459.5,9.0 3531.5,95.0 Q 3603.5,181.0 3603.5,289.0 L 3603.5,488.0 Q 3603.5,512.0 3550.5,512.0 L 3537.5,512.0 L 3537.5,520.0 L 3550.5,520.0 L 3615.5,522.0 L 3615.5,124.0 L 3619.5,74.0 Q 3622.5,46.0 3632.0,27.0 Q 3641.5,8.0 3652.5,8.0 L 3700.5,16.0 L 3702.5,6.0 L 3653.5,-2.0 Q 3635.5,-2.0 3623.0,20.5 Q 3610.5,43.0 3607.5,74.0 L 3603.5,124.0 L 3603.5,174.0 Q 3603.5,190.0 3599.5,190.0 Q 3596.5,190.0 3591.5,178.0 Q 3560.5,100.0 3500.0,49.0 Q 3439.5,-2.0 3370.5,-2.0 Q 3290.5,-2.0 3248.0,34.0 Q 3205.5,70.0 3205.5,138.0 L 3205.5,488.0 Q 3205.5,501.0 3194.0,506.5 Q 3182.5,512.0 3153.5,512.0 L 3140.5,512.0" fill="none" stroke="#000000" stroke-width="7.167"/>
	<path d="M 4142.5,156.0 L 4142.5,436.0 Q 4044.5,512.0 3951.5,512.0 Q 3862.5,512.0 3805.0,440.5 Q 3747.5,369.0 3747.5,260.0 Q 3747.5,151.0 3806.5,79.5 Q 3865.5,8.0 3956.5,8.0 Q 4022.5,8.0 4072.0,48.5 Q 4121.5,89.0 4142.5,156.0 M 4154.5,762.0 L 4154.5,124.0 L 4159.5,74.0 Q 4162.5,46.0 4172.0,26.0 Q 4181.5,6.0 4192.5,6.0 L 4240.5,16.0 L 4242.5,6.0 L 4193.5,-2.0 L 4192.5,-2.0 Q 4174.5,-2.0 4162.0,20.5 Q 4149.5,43.0 4146.5,74.0 L 4144.5,96.0 Q 4142.5,110.0 4139.5,110.0 Q 4135.5,110.0 4129.5,99.0 Q 4070.5,-2.0 3956.5,-2.0 Q 3860.5,-2.0 3797.5,72.0 Q 3734.5,146.0 3734.5,260.0 Q 3734.5,374.0 3796.0,448.0 Q 3857.5,522.0 3951.5,522.0 Q 4043.5,522.0 4142.5,448.0 L 4142.5,728.0 Q 4142.5,741.0 4131.0,746.5 Q 4119.5,752.0 4090.5,752.0 L 4067.5,752.0 L 4067.5,760.0 L 4090.5,760.0 L 4154.5,762.0" fill="none" stroke="#000000" stroke-width="7.167"/>
	<path d="M 4716.5,275.0 Q 4739.5,275.0 4739.5,309.0 Q 4739.5,320.0 4738.5,324.0 Q 4723.5,410.0 4666.0,461.0 Q 4608.5,512.0 4520.5,512.0 Q 4424.5,512.0 4358.5,446.5 Q 4292.5,381.0 4288.5,275.0 L 4716.5,275.0 M 4287.5,265.0 L 4287.5,260.0 Q 4287.5,150.0 4351.0,79.0 Q 4414.5,8.0 4514.5,8.0 Q 4668.5,8.0 4734.5,123.0 L 4743.5,118.0 Q 4676.5,-2.0 4514.5,-2.0 Q 4409.5,-2.0 4342.0,72.5 Q 4274.5,147.0 4274.5,260.0 L 4274.5,270.0 Q 4277.5,381.0 4347.0,451.5 Q 4416.5,522.0 4520.5,522.0 Q 4626.5,522.0 4690.5,451.0 Q 4754.5,380.0 4754.5,270.0 Q 4754.5,265.0 4750.5,265.0 L 4287.5,265.0" fill="none" stroke="#000000" stroke-width="7.167"/>
	<path d="M 25.0,1922.0 L 245.0,1922.0 L 245.0,1914.0 L 208.0,1914.0 Q 176.0,1914.0 158.5,1910.0 Q 141.0,1906.0 136.5,1901.0 Q 132.0,1896.0 132.0,1888.0 L 132.0,1572.0 L 598.0,1572.0 L 598.0,1888.0 Q 598.0,1896.0 593.5,1901.0 Q 589.0,1906.0 571.5,1910.0 Q 554.0,1914.0 522.0,1914.0 L 485.0,1914.0 L 485.0,1922.0 L 705.0,1922.0 L 705.0,1914.0 L 685.0,1914.0 Q 653.0,1914.0 635.5,1910.0 Q 618.0,1906.0 614.0,1901.0 Q 610.0,1896.0 610.0,1888.0 L 610.0,1198.0 Q 610.0,1190.0 614.0,1184.5 Q 618.0,1179.0 635.5,1174.5 Q 653.0,1170.0 685.0,1170.0 L 705.0,1170.0 L 705.0,1162.0 L 485.0,1162.0 L 485.0,1170.0 L 522.0,1170.0 Q 598.0,1170.0 598.0,1198.0 L 598.0,1562.0 L 132.0,1562.0 L 132.0,1198.0 Q 132.0,1170.0 208.0,1170.0 L 245.0,1170.0 L 245.0,1162.0 L 25.0,1162.0 L 25.0,1170.0 L 45.0,1170.0 Q 77.0,1170.0 94.5,1174.5 Q 112.0,1179.0 116.0,1184.5 Q 120.0,1190.0 120.0,1198.0 L 120.0,1888.0 Q 120.0,1896.0 116.0,1901.0 Q 112.0,1906.0 94.5,1910.0 Q 77.0,1914.0 45.0,1914.0 L 25.0,1914.0 L 25.0,1922.0" fill="none" stroke="#000000" stroke-width="7.167"/>
	<path d="M 1143.0,1485.0 Q 1133.0,1469.0 1115.0,1457.5 Q 1097.0,1446.0 1068.5,1440.0 Q 1040.0,1434.0 1022.5,1431.0 Q 1005.0,1428.0 971.0,1425.0 Q 937.0,1422.0 933.0,1422.0 Q 750.0,1404.0 750.0,1292.0 Q 750.0,1239.0 801.5,1204.5 Q 853.0,1170.0 933.0,1170.0 Q 1019.0,1170.0 1081.0,1236.0 Q 1143.0,1302.0 1143.0,1384.0 L 1143.0,1485.0 M 991.0,1684.0 Q 1063.0,1684.0 1109.0,1638.5 Q 1155.0,1593.0 1155.0,1522.0 L 1155.0,1280.0 L 1163.0,1232.0 Q 1173.0,1172.0 1193.0,1172.0 L 1247.0,1177.0 L 1248.0,1167.0 L 1193.0,1160.0 Q 1161.0,1160.0 1151.0,1230.0 Q 1150.0,1237.0 1148.0,1248.5 Q 1146.0,1260.0 1144.5,1268.5 Q 1143.0,1277.0 1143.0,1279.0 L 1143.0,1290.0 Q 1143.0,1304.0 1139.0,1304.0 Q 1136.0,1304.0 1131.0,1293.0 Q 1104.0,1235.0 1051.0,1197.5 Q 998.0,1160.0 933.0,1160.0 Q 848.0,1160.0 792.5,1197.0 Q 737.0,1234.0 737.0,1292.0 Q 737.0,1413.0 932.0,1432.0 Q 936.0,1432.0 954.5,1434.0 Q 973.0,1436.0 981.5,1437.0 Q 990.0,1438.0 1009.0,1440.0 Q 1028.0,1442.0 1038.5,1444.5 Q 1049.0,1447.0 1065.5,1451.0 Q 1082.0,1455.0 1092.0,1460.0 Q 1102.0,1465.0 1113.0,1471.5 Q 1124.0,1478.0 1130.5,1486.0 Q 1137.0,1494.0 1140.0,1504.0 Q 1143.0,1513.0 1143.0,1520.0 L 1143.0,1522.0 Q 1143.0,1588.0 1100.5,1631.0 Q 1058.0,1674.0 992.0,1674.0 Q 917.0,1674.0 864.0,1645.0 Q 811.0,1616.0 811.0,1575.0 Q 811.0,1564.0 801.0,1564.0 Q 790.0,1564.0 790.0,1575.0 Q 790.0,1620.0 849.0,1652.0 Q 908.0,1684.0 991.0,1684.0" fill="none" stroke="#000000" stroke-width="7.167"/>
	<path d="M 1368.0,1598.0 L 1368.0,1316.0 Q 1389.0,1249.0 1438.0,1209.5 Q 1487.0,1170.0 1554.0,1170.0 Q 1645.0,1170.0 1704.0,1241.5 Q 1763.0,1313.0 1763.0,1422.0 Q 1763.0,1531.0 1705.5,1602.5 Q 1648.0,1674.0 1559.0,1674.0 Q 1468.0,1674.0 1368.0,1598.0 M 1368.0,957.0 Q 1368.0,949.0 1372.0,943.5 Q 1376.0,938.0 1393.5,934.0 Q 1411.0,930.0 1443.0,930.0 L 1480.0,930.0 L 1480.0,922.0 L 1260.0,922.0 L 1260.0,930.0 L 1280.0,930.0 Q 1312.0,930.0 1329.5,934.0 Q 1347.0,938.0 1351.5,943.5 Q 1356.0,949.0 1356.0,957.0 L 1356.0,1650.0 Q 1356.0,1674.0 1303.0,1674.0 L 1290.0,1674.0 L 1290.0,1682.0 L 1303.0,1682.0 L 1368.0,1684.0 L 1368.0,1610.0 Q 1468.0,1684.0 1559.0,1684.0 Q 1653.0,1684.0 1714.5,1610.0 Q 1776.0,1536.0 1776.0,1422.0 Q 1776.0,1308.0 1713.0,1234.0 Q 1650.0,1160.0 1554.0,1160.0 Q 1501.0,1160.0 1457.5,1185.0 Q 1414.0,1210.0 1386.0,1254.0 Q 1377.0,1268.0 1373.0,1268.0 Q 1368.0,1268.0 1368.0,1249.0 L 1368.0,957.0" fill="none" stroke="#000000" stroke-width="7.167"/>
	<path d="M 1896.0,1598.0 L 1896.0,1316.0 Q 1917.0,1249.0 1966.0,1209.5 Q 2015.0,1170.0 2082.0,1170.0 Q 2173.0,1170.0 2232.0,1241.5 Q 2291.0,1313.0 2291.0,1422.0 Q 2291.0,1531.0 2233.5,1602.5 Q 2176.0,1674.0 2087.0,1674.0 Q 1996.0,1674.0 1896.0,1598.0 M 1896.0,957.0 Q 1896.0,949.0 1900.0,943.5 Q 1904.0,938.0 1921.5,934.0 Q 1939.0,930.0 1971.0,930.0 L 2008.0,930.0 L 2008.0,922.0 L 1788.0,922.0 L 1788.0,930.0 L 1808.0,930.0 Q 1840.0,930.0 1857.5,934.0 Q 1875.0,938.0 1879.5,943.5 Q 1884.0,949.0 1884.0,957.0 L 1884.0,1650.0 Q 1884.0,1674.0 1831.0,1674.0 L 1818.0,1674.0 L 1818.0,1682.0 L 1831.0,1682.0 L 1896.0,1684.0 L 1896.0,1610.0 Q 1996.0,1684.0 2087.0,1684.0 Q 2181.0,1684.0 2242.5,1610.0 Q 2304.0,1536.0 2304.0,1422.0 Q 2304.0,1308.0 2241.0,1234.0 Q 2178.0,1160.0 2082.0,1160.0 Q 2029.0,1160.0 1985.5,1185.0 Q 1942.0,1210.0 1914.0,1254.0 Q 1905.0,1268.0 1901.0,1268.0 Q 1896.0,1268.0 1896.0,1249.0 L 1896.0,957.0" fill="none" stroke="#000000" stroke-width="7.167"/>
	<path d="M 2675.0,1682.0 L 2874.0,1682.0 L 2874.0,1674.0 L 2868.0,1674.0 Q 2818.0,1674.0 2804.0,1638.0 L 2595.0,1140.0 Q 2549.0,1032.0 2499.5,977.0 Q 2450.0,922.0 2382.0,922.0 Q 2321.0,922.0 2282.5,949.0 Q 2244.0,976.0 2244.0,1020.0 Q 2244.0,1034.0 2250.0,1046.0 Q 2253.0,1053.0 2260.0,1053.0 Q 2264.0,1053.0 2266.0,1052.0 Q 2274.0,1049.0 2274.0,1041.0 Q 2274.0,1040.0 2273.0,1038.5 Q 2272.0,1037.0 2272.0,1036.0 Q 2267.0,1026.0 2267.0,1012.0 Q 2267.0,976.0 2298.5,954.0 Q 2330.0,932.0 2382.0,932.0 Q 2446.0,932.0 2494.0,985.5 Q 2542.0,1039.0 2586.0,1143.0 L 2588.0,1150.0 L 2588.0,1151.0 Q 2589.0,1152.0 2589.0,1153.0 Q 2589.0,1162.0 2582.0,1181.0 L 2406.0,1607.0 Q 2390.0,1646.0 2379.0,1656.0 Q 2368.0,1666.0 2344.0,1666.0 Q 2332.0,1666.0 2320.0,1662.0 L 2318.0,1662.0 L 2316.0,1661.0 Q 2307.0,1661.0 2307.0,1670.0 Q 2307.0,1684.0 2341.0,1684.0 Q 2372.0,1684.0 2385.5,1669.5 Q 2399.0,1655.0 2418.0,1610.0 L 2589.0,1196.0 Q 2595.0,1182.0 2598.0,1182.0 Q 2602.0,1182.0 2608.0,1197.0 L 2796.0,1640.0 Q 2800.0,1652.0 2800.0,1656.0 Q 2800.0,1667.0 2784.0,1670.5 Q 2768.0,1674.0 2725.0,1674.0 L 2675.0,1674.0 L 2675.0,1682.0" fill="none" stroke="#000000" stroke-width="7.167"/>
	<path d="M 3299.0,1922.0 L 3574.0,1922.0 Q 3700.0,1922.0 3767.0,1875.5 Q 3834.0,1829.0 3834.0,1754.0 Q 3834.0,1690.0 3796.5,1645.0 Q 3759.0,1600.0 3687.0,1590.0 L 3685.0,1590.0 L 3685.0,1588.0 L 3687.0,1588.0 Q 3914.0,1563.0 3914.0,1382.0 Q 3914.0,1286.0 3840.0,1224.0 Q 3766.0,1162.0 3654.0,1162.0 L 3299.0,1162.0 L 3299.0,1170.0 L 3319.0,1170.0 Q 3351.0,1170.0 3368.5,1174.0 Q 3386.0,1178.0 3390.0,1183.5 Q 3394.0,1189.0 3394.0,1197.0 L 3394.0,1886.0 Q 3394.0,1900.0 3379.0,1907.0 Q 3364.0,1914.0 3319.0,1914.0 L 3299.0,1914.0 L 3299.0,1922.0 M 3406.0,1912.0 L 3406.0,1172.0 L 3654.0,1172.0 Q 3763.0,1172.0 3832.5,1231.0 Q 3902.0,1290.0 3902.0,1382.0 Q 3902.0,1415.0 3894.0,1442.5 Q 3886.0,1470.0 3865.0,1499.5 Q 3844.0,1529.0 3798.5,1549.5 Q 3753.0,1570.0 3686.0,1578.0 L 3634.0,1584.0 L 3435.0,1584.0 L 3435.0,1594.0 L 3634.0,1594.0 L 3686.0,1600.0 Q 3754.0,1610.0 3788.0,1651.5 Q 3822.0,1693.0 3822.0,1754.0 Q 3822.0,1824.0 3760.0,1868.0 Q 3698.0,1912.0 3574.0,1912.0 L 3406.0,1912.0" fill="none" stroke="#000000" stroke-width="7.167"/>
	<path d="M 4019.0,1852.0 Q 4019.0,1860.0 4025.0,1866.0 Q 4031.0,1872.0 4039.0,1872.0 Q 4047.0,1872.0 4053.0,1866.0 Q 4059.0,1860.0 4059.0,1852.0 Q 4059.0,1844.0 4053.0,1838.0 Q 4047.0,1832.0 4039.0,1832.0 Q 4031.0,1832.0 4025.0,1838.0 Q 4019.0,1844.0 4019.0,1852.0 M 4046.0,1197.0 Q 4046.0,1189.0 4050.5,1183.5 Q 4055.0,1178.0 4072.5,1174.0 Q 4090.0,1170.0 4122.0,1170.0 L 4139.0,1170.0 L 4139.0,1162.0 L 3939.0,1162.0 L 3939.0,1170.0 L 3959.0,1170.0 Q 3991.0,1170.0 4008.5,1174.0 Q 4026.0,1178.0 4030.0,1183.5 Q 4034.0,1189.0 4034.0,1197.0 L 4034.0,1650.0 Q 4034.0,1663.0 4022.5,1668.5 Q 4011.0,1674.0 3982.0,1674.0 L 3969.0,1674.0 L 3969.0,1682.0 L 3982.0,1682.0 L 4046.0,1684.0 L 4046.0,1197.0" fill="none" stroke="#000000" stroke-width="7.167"/>
	<path d="M 4530.0,1610.0 Q 4530.0,1598.0 4517.0,1598.0 Q 4505.0,1598.0 4505.0,1610.0 Q 4505.0,1674.0 4447.0,1674.0 Q 4373.0,1674.0 4322.0,1604.5 Q 4271.0,1535.0 4271.0,1440.0 L 4271.0,1197.0 Q 4271.0,1189.0 4275.5,1183.5 Q 4280.0,1178.0 4297.5,1174.0 Q 4315.0,1170.0 4347.0,1170.0 L 4374.0,1170.0 L 4374.0,1162.0 L 4164.0,1162.0 L 4164.0,1170.0 L 4184.0,1170.0 Q 4216.0,1170.0 4233.5,1174.0 Q 4251.0,1178.0 4255.0,1183.5 Q 4259.0,1189.0 4259.0,1197.0 L 4259.0,1650.0 Q 4259.0,1663.0 4247.5,1668.5 Q 4236.0,1674.0 4207.0,1674.0 L 4194.0,1674.0 L 4194.0,1682.0 L 4207.0,1682.0 L 4271.0,1684.0 L 4271.0,1518.0 Q 4290.0,1590.0 4337.0,1637.0 Q 4384.0,1684.0 4447.0,1684.0 Q 4482.0,1684.0 4506.0,1663.0 Q 4530.0,1642.0 4530.0,1610.0" fill="none" stroke="#000000" stroke-width="7.167"/>
	<path d="M 4550.0,1662.0 L 4550.0,1672.0 L 4595.0,1672.0 Q 4628.0,1672.0 4636.5,1683.0 Q 4645.0,1694.0 4645.0,1734.0 L 4645.0,1822.0 L 4655.0,1822.0 L 4655.0,1689.0 Q 4655.0,1672.0 4673.0,1672.0 L 4910.0,1672.0 L 4910.0,1662.0 L 4673.0,1662.0 Q 4655.0,1662.0 4655.0,1644.0 L 4655.0,1357.0 Q 4655.0,1275.0 4692.0,1222.5 Q 4729.0,1170.0 4786.0,1170.0 Q 4869.0,1170.0 4906.0,1230.0 L 4914.0,1226.0 Q 4894.0,1193.0 4859.5,1176.5 Q 4825.0,1160.0 4786.0,1160.0 Q 4724.0,1160.0 4683.0,1216.0 Q 4642.0,1272.0 4642.0,1357.0 L 4642.0,1644.0 Q 4642.0,1662.0 4624.0,1662.0 L 4550.0,1662.0" fill="none" stroke="#000000" stroke-width="7.167"/>
	<path d="M 4959.0,1922.0 L 4982.0,1922.0 L 5046.0,1924.0 L 5046.0,1508.0 Q 5046.0,1492.0 5050.0,1492.0 Q 5053.0,1492.0 5058.0,1504.0 Q 5089.0,1582.0 5149.5,1633.0 Q 5210.0,1684.0 5279.0,1684.0 Q 5359.0,1684.0 5401.5,1648.0 Q 5444.0,1612.0 5444.0,1544.0 L 5444.0,1197.0 Q 5444.0,1189.0 5448.0,1183.5 Q 5452.0,1178.0 5469.5,1174.0 Q 5487.0,1170.0 5519.0,1170.0 L 5539.0,1170.0 L 5539.0,1162.0 L 5329.0,1162.0 L 5329.0,1170.0 L 5356.0,1170.0 Q 5388.0,1170.0 5405.5,1174.0 Q 5423.0,1178.0 5427.5,1183.5 Q 5432.0,1189.0 5432.0,1197.0 L 5432.0,1543.0 Q 5432.0,1606.0 5392.5,1639.5 Q 5353.0,1673.0 5279.0,1673.0 Q 5192.0,1673.0 5119.0,1585.5 Q 5046.0,1498.0 5046.0,1393.0 L 5046.0,1197.0 Q 5046.0,1189.0 5050.5,1183.5 Q 5055.0,1178.0 5072.5,1174.0 Q 5090.0,1170.0 5122.0,1170.0 L 5149.0,1170.0 L 5149.0,1162.0 L 4939.0,1162.0 L 4939.0,1170.0 L 4959.0,1170.0 Q 4991.0,1170.0 5008.5,1174.0 Q 5026.0,1178.0 5030.0,1183.5 Q 5034.0,1189.0 5034.0,1197.0 L 5034.0,1890.0 Q 5034.0,1903.0 5022.5,1908.5 Q 5011.0,1914.0 4982.0,1914.0 L 4959.0,1914.0 L 4959.0,1922.0" fill="none" stroke="#000000" stroke-width="7.167"/>
	<path d="M 5979.0,1318.0 L 5979.0,1598.0 Q 5881.0,1674.0 5788.0,1674.0 Q 5699.0,1674.0 5641.5,1602.5 Q 5584.0,1531.0 5584.0,1422.0 Q 5584.0,1313.0 5643.0,1241.5 Q 5702.0,1170.0 5793.0,1170.0 Q 5859.0,1170.0 5908.5,1210.5 Q 5958.0,1251.0 5979.0,1318.0 M 5991.0,1924.0 L 5991.0,1286.0 L 5996.0,1236.0 Q 5999.0,1208.0 6008.5,1188.0 Q 6018.0,1168.0 6029.0,1168.0 L 6077.0,1178.0 L 6079.0,1168.0 L 6030.0,1160.0 L 6029.0,1160.0 Q 6011.0,1160.0 5998.5,1182.5 Q 5986.0,1205.0 5983.0,1236.0 L 5981.0,1258.0 Q 5979.0,1272.0 5976.0,1272.0 Q 5972.0,1272.0 5966.0,1261.0 Q 5907.0,1160.0 5793.0,1160.0 Q 5697.0,1160.0 5634.0,1234.0 Q 5571.0,1308.0 5571.0,1422.0 Q 5571.0,1536.0 5632.5,1610.0 Q 5694.0,1684.0 5788.0,1684.0 Q 5880.0,1684.0 5979.0,1610.0 L 5979.0,1890.0 Q 5979.0,1903.0 5967.5,1908.5 Q 5956.0,1914.0 5927.0,1914.0 L 5904.0,1914.0 L 5904.0,1922.0 L 5927.0,1922.0 L 5991.0,1924.0" fill="none" stroke="#000000" stroke-width="7.167"/>
	<path d="M 6517.0,1485.0 Q 6507.0,1469.0 6489.0,1457.5 Q 6471.0,1446.0 6442.5,1440.0 Q 6414.0,1434.0 6396.5,1431.0 Q 6379.0,1428.0 6345.0,1425.0 Q 6311.0,1422.0 6307.0,1422.0 Q 6124.0,1404.0 6124.0,1292.0 Q 6124.0,1239.0 6175.5,1204.5 Q 6227.0,1170.0 6307.0,1170.0 Q 6393.0,1170.0 6455.0,1236.0 Q 6517.0,1302.0 6517.0,1384.0 L 6517.0,1485.0 M 6365.0,1684.0 Q 6437.0,1684.0 6483.0,1638.5 Q 6529.0,1593.0 6529.0,1522.0 L 6529.0,1280.0 L 6537.0,1232.0 Q 6547.0,1172.0 6567.0,1172.0 L 6621.0,1177.0 L 6622.0,1167.0 L 6567.0,1160.0 Q 6535.0,1160.0 6525.0,1230.0 Q 6524.0,1237.0 6522.0,1248.5 Q 6520.0,1260.0 6518.5,1268.5 Q 6517.0,1277.0 6517.0,1279.0 L 6517.0,1290.0 Q 6517.0,1304.0 6513.0,1304.0 Q 6510.0,1304.0 6505.0,1293.0 Q 6478.0,1235.0 6425.0,1197.5 Q 6372.0,1160.0 6307.0,1160.0 Q 6222.0,1160.0 6166.5,1197.0 Q 6111.0,1234.0 6111.0,1292.0 Q 6111.0,1413.0 6306.0,1432.0 Q 6310.0,1432.0 6328.5,1434.0 Q 6347.0,1436.0 6355.5,1437.0 Q 6364.0,1438.0 6383.0,1440.0 Q 6402.0,1442.0 6412.5,1444.5 Q 6423.0,1447.0 6439.5,1451.0 Q 6456.0,1455.0 6466.0,1460.0 Q 6476.0,1465.0 6487.0,1471.5 Q 6498.0,1478.0 6504.5,1486.0 Q 6511.0,1494.0 6514.0,1504.0 Q 6517.0,1513.0 6517.0,1520.0 L 6517.0,1522.0 Q 6517.0,1588.0 6474.5,1631.0 Q 6432.0,1674.0 6366.0,1674.0 Q 6291.0,1674.0 6238.0,1645.0 Q 6185.0,1616.0 6185.0,1575.0 Q 6185.0,1564.0 6175.0,1564.0 Q 6164.0,1564.0 6164.0,1575.0 Q 6164.0,1620.0 6223.0,1652.0 Q 6282.0,1684.0 6365.0,1684.0" fill="none" stroke="#000000" stroke-width="7.167"/>
	<path d="M 6993.0,1682.0 L 7192.0,1682.0 L 7192.0,1674.0 L 7186.0,1674.0 Q 7136.0,1674.0 7122.0,1638.0 L 6913.0,1140.0 Q 6867.0,1032.0 6817.5,977.0 Q 6768.0,922.0 6700.0,922.0 Q 6639.0,922.0 6600.5,949.0 Q 6562.0,976.0 6562.0,1020.0 Q 6562.0,1034.0 6568.0,1046.0 Q 6571.0,1053.0 6578.0,1053.0 Q 6582.0,1053.0 6584.0,1052.0 Q 6592.0,1049.0 6592.0,1041.0 Q 6592.0,1040.0 6591.0,1038.5 Q 6590.0,1037.0 6590.0,1036.0 Q 6585.0,1026.0 6585.0,1012.0 Q 6585.0,976.0 6616.5,954.0 Q 6648.0,932.0 6700.0,932.0 Q 6764.0,932.0 6812.0,985.5 Q 6860.0,1039.0 6904.0,1143.0 L 6906.0,1150.0 L 6906.0,1151.0 Q 6907.0,1152.0 6907.0,1153.0 Q 6907.0,1162.0 6900.0,1181.0 L 6724.0,1607.0 Q 6708.0,1646.0 6697.0,1656.0 Q 6686.0,1666.0 6662.0,1666.0 Q 6650.0,1666.0 6638.0,1662.0 L 6636.0,1662.0 L 6634.0,1661.0 Q 6625.0,1661.0 6625.0,1670.0 Q 6625.0,1684.0 6659.0,1684.0 Q 6690.0,1684.0 6703.5,1669.5 Q 6717.0,1655.0 6736.0,1610.0 L 6907.0,1196.0 Q 6913.0,1182.0 6916.0,1182.0 Q 6920.0,1182.0 6926.0,1197.0 L 7114.0,1640.0 Q 7118.0,1652.0 7118.0,1656.0 Q 7118.0,1667.0 7102.0,1670.5 Q 7086.0,1674.0 7043.0,1674.0 L 6993.0,1674.0 L 6993.0,1682.0" fill="none" stroke="#000000" stroke-width="7.167"/>
</svg>
